<svg width="28" height="29" viewBox="0 0 28 29" fill="none" xmlns="http://www.w3.org/2000/svg">
<path d="M14 17.9708C13.8445 17.9708 13.694 17.9416 13.5485 17.8833C13.4023 17.8249 13.2806 17.7472 13.1833 17.6499L7.81668 12.2833C7.60279 12.0694 7.49585 11.7972 7.49585 11.4666C7.49585 11.136 7.60279 10.8638 7.81668 10.6499C8.03057 10.436 8.30279 10.3291 8.63335 10.3291C8.9639 10.3291 9.23613 10.436 9.45002 10.6499L14 15.1999L18.55 10.6499C18.7639 10.436 19.0361 10.3291 19.3667 10.3291C19.6972 10.3291 19.9695 10.436 20.1833 10.6499C20.3972 10.8638 20.5042 11.136 20.5042 11.4666C20.5042 11.7972 20.3972 12.0694 20.1833 12.2833L14.8167 17.6499C14.7 17.7666 14.5736 17.849 14.4375 17.8973C14.3014 17.9463 14.1556 17.9708 14 17.9708Z" fill="#8E8E8E"/>
</svg>
