<svg width="18" height="18" viewBox="0 0 18 18" fill="none" xmlns="http://www.w3.org/2000/svg">
<path d="M13.2178 9.06445C13.2178 9.15104 13.1995 9.23307 13.1631 9.31055C13.1312 9.38346 13.0833 9.45182 13.0195 9.51562L7.60547 14.8135C7.48242 14.9365 7.33203 14.998 7.1543 14.998C7.04036 14.998 6.93555 14.9707 6.83984 14.916C6.74414 14.8613 6.66895 14.7861 6.61426 14.6904C6.55957 14.5993 6.53223 14.4945 6.53223 14.376C6.53223 14.2074 6.59147 14.0592 6.70996 13.9316L11.6865 9.06445L6.70996 4.19727C6.59147 4.06966 6.53223 3.92155 6.53223 3.75293C6.53223 3.63444 6.55957 3.52962 6.61426 3.43848C6.66895 3.34277 6.74414 3.26758 6.83984 3.21289C6.93555 3.1582 7.04036 3.13086 7.1543 3.13086C7.33203 3.13086 7.48242 3.1901 7.60547 3.30859L13.0195 8.61328C13.0833 8.67708 13.1312 8.74772 13.1631 8.8252C13.1995 8.89811 13.2178 8.97786 13.2178 9.06445Z" fill="#646F7C"/>
</svg>
