<svg width="18" height="18" viewBox="0 0 18 18" fill="none" xmlns="http://www.w3.org/2000/svg">
<path d="M11.4473 14.8955C11.1465 14.8955 10.8708 14.8203 10.6201 14.6699C10.374 14.5241 10.1758 14.3258 10.0254 14.0752C9.875 13.8291 9.7998 13.5557 9.7998 13.2549C9.7998 12.9541 9.875 12.6807 10.0254 12.4346C10.1758 12.1839 10.374 11.9857 10.6201 11.8398C10.8708 11.6895 11.1465 11.6143 11.4473 11.6143C11.748 11.6143 12.0215 11.6895 12.2676 11.8398C12.5182 11.9857 12.7165 12.1839 12.8623 12.4346C13.0127 12.6807 13.0879 12.9541 13.0879 13.2549C13.0879 13.5557 13.0127 13.8291 12.8623 14.0752C12.7165 14.3258 12.5182 14.5241 12.2676 14.6699C12.0215 14.8203 11.748 14.8955 11.4473 14.8955ZM11.4473 14.0547C11.6706 14.0547 11.8597 13.9772 12.0146 13.8223C12.1696 13.6673 12.2471 13.4782 12.2471 13.2549C12.2471 13.027 12.1696 12.8379 12.0146 12.6875C11.8597 12.5326 11.6706 12.4551 11.4473 12.4551C11.224 12.4551 11.0348 12.5326 10.8799 12.6875C10.7249 12.8379 10.6475 13.027 10.6475 13.2549C10.6475 13.4782 10.7249 13.6673 10.8799 13.8223C11.0348 13.9772 11.224 14.0547 11.4473 14.0547ZM10.3604 12.7012V13.8018H2.65625C2.50586 13.8018 2.37598 13.7493 2.2666 13.6445C2.16178 13.5352 2.10938 13.4053 2.10938 13.2549C2.10938 13.0999 2.16178 12.9701 2.2666 12.8652C2.37598 12.7559 2.50586 12.7012 2.65625 12.7012H10.3604ZM15.3574 12.7012C15.4987 12.7012 15.6217 12.7559 15.7266 12.8652C15.8314 12.9701 15.8838 13.0999 15.8838 13.2549C15.8838 13.4053 15.8314 13.5352 15.7266 13.6445C15.6217 13.7493 15.4987 13.8018 15.3574 13.8018H12.6367V12.7012H15.3574ZM6.62109 10.7256C6.32031 10.7256 6.0446 10.6504 5.79395 10.5C5.54785 10.3496 5.34961 10.1514 5.19922 9.90527C5.05339 9.65462 4.98047 9.37891 4.98047 9.07812C4.98047 8.77734 5.05339 8.50391 5.19922 8.25781C5.34961 8.00716 5.54785 7.80892 5.79395 7.66309C6.0446 7.5127 6.32031 7.4375 6.62109 7.4375C6.92188 7.4375 7.19531 7.5127 7.44141 7.66309C7.69206 7.80892 7.8903 8.00716 8.03613 8.25781C8.18652 8.50391 8.26172 8.77734 8.26172 9.07812C8.26172 9.37891 8.18652 9.65462 8.03613 9.90527C7.8903 10.1514 7.69206 10.3496 7.44141 10.5C7.19531 10.6504 6.92188 10.7256 6.62109 10.7256ZM6.62109 9.87793C6.84896 9.87793 7.03809 9.80046 7.18848 9.64551C7.34342 9.49056 7.4209 9.30143 7.4209 9.07812C7.4209 8.85026 7.34342 8.66113 7.18848 8.51074C7.03809 8.35579 6.84896 8.27832 6.62109 8.27832C6.39779 8.27832 6.20866 8.35579 6.05371 8.51074C5.89876 8.66113 5.82129 8.85026 5.82129 9.07812C5.82129 9.30143 5.89876 9.49056 6.05371 9.64551C6.20866 9.80046 6.39779 9.87793 6.62109 9.87793ZM2.62891 8.52441H5.44531V9.625H2.62891C2.49219 9.625 2.37142 9.57259 2.2666 9.46777C2.16178 9.36296 2.10938 9.23307 2.10938 9.07812C2.10938 8.92318 2.16178 8.79329 2.2666 8.68848C2.37142 8.5791 2.49219 8.52441 2.62891 8.52441ZM15.3301 8.52441C15.485 8.52441 15.6149 8.5791 15.7197 8.68848C15.8291 8.79329 15.8838 8.92318 15.8838 9.07812C15.8838 9.23307 15.8291 9.36296 15.7197 9.46777C15.6149 9.57259 15.485 9.625 15.3301 9.625H7.70801V8.52441H15.3301ZM11.4473 6.54199C11.1465 6.54199 10.8708 6.46908 10.6201 6.32324C10.374 6.17285 10.1758 5.97461 10.0254 5.72852C9.875 5.47786 9.7998 5.20215 9.7998 4.90137C9.7998 4.60059 9.875 4.32715 10.0254 4.08105C10.1758 3.8304 10.374 3.62988 10.6201 3.47949C10.8708 3.3291 11.1465 3.25391 11.4473 3.25391C11.748 3.25391 12.0215 3.3291 12.2676 3.47949C12.5182 3.62988 12.7165 3.8304 12.8623 4.08105C13.0127 4.32715 13.0879 4.60059 13.0879 4.90137C13.0879 5.20215 13.0127 5.47786 12.8623 5.72852C12.7165 5.97461 12.5182 6.17285 12.2676 6.32324C12.0215 6.46908 11.748 6.54199 11.4473 6.54199ZM11.4473 5.70117C11.6706 5.70117 11.8597 5.6237 12.0146 5.46875C12.1696 5.30924 12.2471 5.11784 12.2471 4.89453C12.2471 4.67122 12.1696 4.4821 12.0146 4.32715C11.8597 4.1722 11.6706 4.09473 11.4473 4.09473C11.224 4.09473 11.0348 4.1722 10.8799 4.32715C10.7249 4.4821 10.6475 4.67122 10.6475 4.89453C10.6475 5.11784 10.7249 5.30924 10.8799 5.46875C11.0348 5.6237 11.224 5.70117 11.4473 5.70117ZM10.3945 4.35449V5.45508H2.65625C2.50586 5.45508 2.37598 5.40267 2.2666 5.29785C2.16178 5.18848 2.10938 5.05632 2.10938 4.90137C2.10938 4.75098 2.16178 4.62337 2.2666 4.51855C2.37598 4.40918 2.50586 4.35449 2.65625 4.35449H10.3945ZM15.3574 4.35449C15.4987 4.35449 15.6217 4.40918 15.7266 4.51855C15.8314 4.62337 15.8838 4.75098 15.8838 4.90137C15.8838 5.05632 15.8314 5.18848 15.7266 5.29785C15.6217 5.40267 15.4987 5.45508 15.3574 5.45508H12.541V4.35449H15.3574Z" fill="#161D24"/>
</svg>
