<svg width="24" height="24" viewBox="0 0 24 24" fill="none" xmlns="http://www.w3.org/2000/svg">
<path d="M3.41309 10.002C3.41309 9.03516 3.59473 8.12988 3.95801 7.28613C4.32129 6.43652 4.8252 5.68945 5.46973 5.04492C6.11426 4.40039 6.8584 3.89648 7.70215 3.5332C8.55176 3.16992 9.45996 2.98828 10.4268 2.98828C11.3936 2.98828 12.2988 3.16992 13.1426 3.5332C13.9922 3.89648 14.7393 4.40039 15.3838 5.04492C16.0283 5.68945 16.5322 6.43652 16.8955 7.28613C17.2588 8.12988 17.4404 9.03516 17.4404 10.002C17.4404 10.8047 17.3115 11.5664 17.0537 12.2871C16.8018 13.0078 16.4502 13.6611 15.999 14.2471L20.2969 18.5713C20.3906 18.665 20.4609 18.7734 20.5078 18.8965C20.5605 19.0195 20.5869 19.1514 20.5869 19.292C20.5869 19.4854 20.543 19.6611 20.4551 19.8193C20.373 19.9775 20.2559 20.1006 20.1035 20.1885C19.9512 20.2822 19.7754 20.3291 19.5762 20.3291C19.4355 20.3291 19.3008 20.3027 19.1719 20.25C19.0488 20.2031 18.9346 20.1299 18.8291 20.0303L14.5049 15.6973C13.9307 16.1074 13.2979 16.4297 12.6064 16.6641C11.915 16.8984 11.1885 17.0156 10.4268 17.0156C9.45996 17.0156 8.55176 16.834 7.70215 16.4707C6.8584 16.1074 6.11426 15.6035 5.46973 14.959C4.8252 14.3145 4.32129 13.5703 3.95801 12.7266C3.59473 11.877 3.41309 10.9688 3.41309 10.002ZM4.91602 10.002C4.91602 10.7637 5.05664 11.4785 5.33789 12.1465C5.625 12.8086 6.02051 13.3916 6.52441 13.8955C7.03418 14.3994 7.62012 14.7949 8.28223 15.082C8.9502 15.3691 9.66504 15.5127 10.4268 15.5127C11.1885 15.5127 11.9004 15.3691 12.5625 15.082C13.2305 14.7949 13.8164 14.3994 14.3203 13.8955C14.8242 13.3916 15.2197 12.8086 15.5068 12.1465C15.7939 11.4785 15.9375 10.7637 15.9375 10.002C15.9375 9.24023 15.7939 8.52832 15.5068 7.86621C15.2197 7.19824 14.8242 6.6123 14.3203 6.1084C13.8164 5.59863 13.2305 5.20312 12.5625 4.92188C11.9004 4.63477 11.1885 4.49121 10.4268 4.49121C9.66504 4.49121 8.9502 4.63477 8.28223 4.92188C7.62012 5.20312 7.03418 5.59863 6.52441 6.1084C6.02051 6.6123 5.625 7.19824 5.33789 7.86621C5.05664 8.52832 4.91602 9.24023 4.91602 10.002Z" fill="#646F7C"/>
</svg>
