<svg width="24" height="24" viewBox="0 0 24 24" fill="none" xmlns="http://www.w3.org/2000/svg">
<path d="M6.99023 18.4131C6.99023 18.29 7.01367 18.1758 7.06055 18.0703C7.10742 17.9707 7.17188 17.877 7.25391 17.7891L13.749 11.4873V12.5068L7.25391 6.20508C7.17188 6.12305 7.10742 6.0293 7.06055 5.92383C7.01367 5.81836 6.99023 5.7041 6.99023 5.58105C6.99023 5.41699 7.02832 5.27051 7.10449 5.1416C7.18652 5.00684 7.29199 4.90137 7.4209 4.8252C7.5498 4.74902 7.69629 4.71094 7.86035 4.71094C7.97754 4.71094 8.08594 4.73438 8.18555 4.78125C8.28516 4.82227 8.38184 4.88379 8.47559 4.96582L15.0586 11.3467C15.1465 11.4346 15.2168 11.5342 15.2695 11.6455C15.3223 11.751 15.3486 11.8682 15.3486 11.9971C15.3486 12.2432 15.252 12.46 15.0586 12.6475L8.48438 19.0283C8.39062 19.1162 8.29102 19.1807 8.18555 19.2217C8.08594 19.2627 7.98047 19.2832 7.86914 19.2832C7.69922 19.2832 7.5498 19.2451 7.4209 19.1689C7.29199 19.0928 7.18652 18.9873 7.10449 18.8525C7.02832 18.7236 6.99023 18.5771 6.99023 18.4131ZM15.3223 18.457V5.55469C15.3223 5.30859 15.4014 5.10645 15.5596 4.94824C15.7178 4.79004 15.9199 4.71094 16.166 4.71094C16.4062 4.71094 16.6055 4.79004 16.7637 4.94824C16.9277 5.10645 17.0098 5.30859 17.0098 5.55469V18.457C17.0098 18.6973 16.9277 18.8936 16.7637 19.0459C16.6055 19.2041 16.4062 19.2832 16.166 19.2832C15.9199 19.2832 15.7178 19.2041 15.5596 19.0459C15.4014 18.8936 15.3223 18.6973 15.3223 18.457Z" fill="#C5C8CE"/>
</svg>
