<svg width="24" height="24" viewBox="0 0 24 24" fill="none" xmlns="http://www.w3.org/2000/svg">
<path d="M17.001 18.4131C17.001 18.5771 16.9629 18.7236 16.8867 18.8525C16.8164 18.9873 16.7139 19.0928 16.5791 19.1689C16.4443 19.2451 16.2979 19.2832 16.1396 19.2832C16.0225 19.2832 15.9111 19.2627 15.8057 19.2217C15.7061 19.1807 15.6094 19.1162 15.5156 19.0283L8.9502 12.6475C8.75684 12.46 8.66016 12.2432 8.66016 11.9971C8.66016 11.8682 8.68359 11.751 8.73047 11.6455C8.77734 11.5342 8.84766 11.4346 8.94141 11.3467L15.5244 4.96582C15.6182 4.88379 15.7148 4.82227 15.8145 4.78125C15.9141 4.73438 16.0225 4.71094 16.1396 4.71094C16.3037 4.71094 16.4502 4.74902 16.5791 4.8252C16.7139 4.90137 16.8193 5.00684 16.8955 5.1416C16.9717 5.27051 17.0098 5.41699 17.0098 5.58105C17.0098 5.7041 16.9863 5.81836 16.9395 5.92383C16.8926 6.0293 16.8281 6.12305 16.7461 6.20508L10.251 12.5068V11.4873L16.7461 17.7891C16.8281 17.877 16.8896 17.9707 16.9307 18.0703C16.9775 18.1758 17.001 18.29 17.001 18.4131ZM8.68652 18.457C8.68652 18.6973 8.60449 18.8936 8.44043 19.0459C8.28223 19.2041 8.08008 19.2832 7.83398 19.2832C7.59375 19.2832 7.3916 19.2041 7.22754 19.0459C7.06934 18.8936 6.99023 18.6973 6.99023 18.457V5.55469C6.99023 5.30859 7.06934 5.10645 7.22754 4.94824C7.3916 4.79004 7.59375 4.71094 7.83398 4.71094C8.08008 4.71094 8.28223 4.79004 8.44043 4.94824C8.60449 5.10645 8.68652 5.30859 8.68652 5.55469V18.457Z" fill="#C5C8CE"/>
</svg>
